<svg width="200" height="29" viewBox="0 0 200 29" fill="none" xmlns="http://www.w3.org/2000/svg">
  <path d="M25.5745 14.3553C25.5745 12.5458 26.9416 11.0178 28.7109 10.8167C28.349 9.36908 27.7862 7.96172 27.0221 6.71526C25.6147 7.8009 23.6041 7.72044 22.2772 6.43373C20.9905 5.14705 20.9101 3.09623 21.9957 1.68887C20.7492 0.924711 19.3419 0.361957 17.8943 0C17.6932 1.76932 16.1652 3.13646 14.3556 3.13646C12.5461 3.13646 11.0181 1.76932 10.817 0C9.3694 0.361973 7.96204 0.924726 6.71558 1.68887C7.80121 3.09623 7.72076 5.10683 6.43405 6.43373C5.14705 7.76064 3.09655 7.80087 1.68887 6.71495C0.924711 7.96141 0.361957 9.36877 0 10.8164C1.76932 11.0175 3.13645 12.5455 3.13645 14.355C3.13645 16.1645 1.76932 17.6925 0 17.8936C0.361973 19.3412 0.924726 20.7486 1.68887 21.995C3.09623 20.9094 5.10683 20.9899 6.43374 22.2766C7.72042 23.5633 7.80087 25.6141 6.71526 27.0214C7.96172 27.7856 9.36908 28.3484 10.8167 28.7103C11.0178 26.941 12.5458 25.5739 14.3553 25.5739C16.1649 25.5739 17.6928 26.941 17.8939 28.7103C19.3415 28.3483 20.7489 27.7856 21.9954 27.0214C20.9097 25.6141 20.9902 23.6035 22.2769 22.2766C23.5636 20.9899 25.6144 20.9094 27.0218 21.995C27.7859 20.7486 28.3487 19.3412 28.7106 17.8936C26.9416 17.6929 25.5745 16.1649 25.5745 14.3553ZM14.3558 19.9445C11.2998 19.9445 8.80658 17.4515 8.80658 14.355C8.80658 11.299 11.2995 8.80575 14.3558 8.80575C17.4118 8.80575 19.9453 11.2987 19.9453 14.355C19.945 17.4113 17.4118 19.9445 14.3558 19.9445Z" fill="#FF4D24"/>
  <text x="38" y="21" font-family="Arial, sans-serif" font-size="16" font-weight="bold" fill="white" letter-spacing="0.5">Alex Luxury</text>
</svg>
